<?xml version="1.0" encoding="UTF-8"?>
<svg xmlns="http://www.w3.org/2000/svg" xmlns:xlink="http://www.w3.org/1999/xlink" width="117pt" height="100pt" viewBox="0 0 117 100" version="1.1">
<g id="surface1">
<path style=" stroke:none;fill-rule:nonzero;fill:rgb(0%,0%,0%);fill-opacity:1;" d="M 54.636719 28.414062 L 53.28125 30.746094 L 50.546875 30.875 L 47.789062 31 L 46.886719 32.503906 C 46.410156 33.332031 45.730469 34.488281 45.40625 35.066406 L 44.828125 36.121094 L 46.132812 38.378906 C 46.835938 39.632812 47.410156 40.761719 47.410156 40.914062 C 47.410156 41.039062 46.859375 42.09375 46.15625 43.273438 C 45.480469 44.453125 44.902344 45.457031 44.902344 45.558594 C 44.902344 45.632812 45.554688 46.8125 46.332031 48.191406 L 47.761719 50.703125 L 53.15625 50.703125 L 54.5625 53.085938 L 55.964844 55.472656 L 62.113281 55.472656 L 63.46875 53.085938 L 64.847656 50.703125 L 70.414062 50.703125 L 71.84375 48.191406 C 72.625 46.789062 73.25 45.609375 73.25 45.53125 C 73.25 45.457031 72.699219 44.453125 71.996094 43.273438 C 71.320312 42.09375 70.742188 41.039062 70.742188 40.914062 C 70.742188 40.761719 71.320312 39.632812 72.019531 38.378906 L 73.324219 36.121094 L 72.75 35.066406 C 72.421875 34.488281 71.746094 33.332031 71.269531 32.503906 L 70.367188 31 L 67.605469 30.921875 L 64.847656 30.847656 L 63.46875 28.539062 L 62.085938 26.230469 L 59.050781 26.15625 L 55.992188 26.078125 Z M 62.5625 29.242188 C 63.191406 30.296875 63.71875 31.25 63.71875 31.402344 C 63.71875 31.527344 63.191406 32.554688 62.5625 33.660156 L 61.410156 35.667969 L 59 35.59375 L 56.59375 35.515625 L 55.414062 33.507812 L 54.261719 31.5 L 55.011719 30.046875 C 56.117188 27.910156 57.046875 27.359375 59.503906 27.359375 L 61.433594 27.359375 Z M 54.511719 34.085938 L 55.714844 36.144531 L 54.4375 38.277344 L 53.15625 40.410156 L 48.515625 40.410156 L 46.109375 36.144531 L 47.0625 34.511719 C 48.289062 32.40625 49.320312 31.828125 51.675781 31.925781 L 53.28125 32.003906 Z M 70.84375 34.011719 L 72.046875 36.144531 L 70.84375 38.277344 L 69.636719 40.410156 L 64.847656 40.410156 L 63.644531 38.277344 L 62.464844 36.144531 L 63.214844 34.8125 C 64.546875 32.453125 65.398438 31.953125 68.257812 31.902344 L 69.636719 31.878906 Z M 62.5625 38.578125 C 63.191406 39.660156 63.71875 40.664062 63.71875 40.839844 C 63.71875 41.015625 63.191406 41.992188 62.5625 43.046875 L 61.433594 44.929688 L 56.570312 44.929688 L 55.414062 42.871094 L 54.234375 40.839844 L 54.988281 39.558594 C 56.441406 37.074219 57.121094 36.648438 59.628906 36.648438 L 61.433594 36.648438 Z M 54.410156 43.324219 C 55.011719 44.378906 55.515625 45.382812 55.515625 45.558594 C 55.515625 45.734375 55.011719 46.738281 54.410156 47.792969 L 53.308594 49.699219 L 48.464844 49.699219 L 47.3125 47.691406 C 46.683594 46.613281 46.15625 45.632812 46.15625 45.53125 C 46.15625 45.457031 46.558594 44.730469 47.035156 43.925781 C 48.265625 41.890625 49.09375 41.414062 51.425781 41.414062 L 53.308594 41.414062 Z M 70.84375 43.421875 C 71.46875 44.527344 71.996094 45.480469 71.996094 45.558594 C 71.996094 45.632812 71.46875 46.613281 70.84375 47.691406 L 69.6875 49.699219 L 64.820312 49.699219 L 63.644531 47.640625 L 62.488281 45.582031 L 63.265625 44.101562 C 64.421875 41.96875 65.347656 41.414062 67.757812 41.414062 L 69.664062 41.414062 Z M 62.640625 48.242188 L 63.867188 50.328125 L 62.640625 52.382812 L 61.386719 54.46875 L 56.570312 54.46875 L 55.414062 52.382812 L 54.234375 50.328125 L 54.886719 49.195312 C 55.664062 47.839844 56.644531 46.710938 57.320312 46.4375 C 57.597656 46.308594 58.625 46.210938 59.628906 46.210938 L 61.433594 46.183594 Z M 62.640625 48.242188 "/>
<path style=" stroke:none;fill-rule:nonzero;fill:rgb(0%,0%,0%);fill-opacity:1;" d="M 55.691406 59.988281 C 55.691406 60.390625 55.867188 60.492188 56.570312 60.492188 L 57.445312 60.492188 L 57.445312 66.71875 C 57.445312 70.128906 57.347656 73.269531 57.21875 73.71875 C 57.046875 74.347656 57.070312 74.546875 57.371094 74.648438 C 57.570312 74.722656 57.847656 74.75 57.972656 74.671875 C 58.398438 74.398438 58.699219 72.640625 58.699219 70.457031 L 58.699219 68.222656 L 61.660156 70.984375 C 64.621094 73.746094 65.976562 74.699219 66.628906 74.449219 C 67.230469 74.222656 67.003906 73.695312 65.976562 73.042969 C 64.796875 72.289062 61.410156 69.027344 61.511719 68.773438 C 61.558594 68.675781 62.289062 67.722656 63.164062 66.667969 C 64.46875 65.058594 64.847656 64.757812 65.472656 64.757812 C 66.101562 64.757812 66.226562 64.660156 66.226562 64.132812 C 66.226562 63.554688 66.125 63.503906 65.171875 63.503906 C 64.121094 63.503906 64.042969 63.578125 62.261719 65.761719 L 60.40625 68.023438 L 59.554688 67.371094 L 58.699219 66.71875 L 58.699219 59.488281 L 57.195312 59.488281 C 55.867188 59.488281 55.691406 59.539062 55.691406 59.988281 Z M 55.691406 59.988281 "/>
<path style=" stroke:none;fill-rule:nonzero;fill:rgb(0%,0%,0%);fill-opacity:1;" d="M 87.625 60.417969 C 87.449219 60.46875 87.296875 60.917969 87.296875 61.371094 C 87.296875 62.75 86.921875 63.453125 86.121094 63.554688 C 85.617188 63.605469 85.390625 63.78125 85.339844 64.183594 C 85.265625 64.683594 85.367188 64.757812 86.121094 64.757812 L 86.996094 64.757812 L 87.097656 69.101562 C 87.199219 74.148438 87.25 74.296875 89.03125 74.296875 C 90.359375 74.296875 90.886719 74.046875 90.683594 73.492188 C 90.585938 73.242188 90.308594 73.167969 89.757812 73.242188 C 88.453125 73.445312 88.300781 72.96875 88.300781 68.597656 L 88.300781 64.757812 L 89.554688 64.757812 C 90.734375 64.757812 90.808594 64.707031 90.808594 64.132812 C 90.808594 63.554688 90.734375 63.503906 89.554688 63.503906 L 88.300781 63.503906 L 88.300781 61.871094 C 88.300781 60.265625 88.25 60.140625 87.625 60.417969 Z M 87.625 60.417969 "/>
<path style=" stroke:none;fill-rule:nonzero;fill:rgb(0%,0%,0%);fill-opacity:1;" d="M 27.59375 60.992188 C 27.59375 61.394531 27.746094 61.496094 28.371094 61.496094 L 29.175781 61.496094 L 28.972656 67.195312 C 28.875 70.355469 28.75 72.992188 28.671875 73.09375 C 28.621094 73.21875 28.296875 73.292969 27.945312 73.292969 C 27.519531 73.292969 27.34375 73.417969 27.34375 73.796875 C 27.34375 74.246094 27.519531 74.296875 29.476562 74.296875 C 31.433594 74.296875 31.609375 74.246094 31.609375 73.796875 C 31.609375 73.394531 31.433594 73.292969 30.855469 73.292969 C 30.101562 73.292969 30.101562 73.292969 30.101562 71.835938 C 30.101562 69.203125 30.429688 62.75 30.554688 62.875 C 30.628906 62.925781 31.609375 65.011719 32.738281 67.445312 C 34.394531 71.035156 34.917969 71.9375 35.347656 71.988281 C 35.824219 72.0625 36.171875 71.484375 38.207031 67.34375 L 40.511719 62.625 L 40.6875 67.644531 C 40.816406 70.40625 40.839844 72.816406 40.765625 72.96875 C 40.714844 73.140625 40.363281 73.292969 40.011719 73.292969 C 39.558594 73.292969 39.382812 73.417969 39.382812 73.796875 C 39.382812 74.246094 39.558594 74.296875 41.515625 74.296875 C 43.472656 74.296875 43.648438 74.246094 43.648438 73.796875 C 43.648438 73.417969 43.472656 73.292969 42.945312 73.292969 L 42.21875 73.292969 L 42.070312 70.609375 C 41.96875 69.152344 41.894531 66.492188 41.894531 64.707031 L 41.894531 61.496094 L 42.644531 61.496094 C 43.246094 61.496094 43.398438 61.394531 43.398438 60.992188 C 43.398438 60.515625 43.273438 60.46875 41.71875 60.542969 L 40.035156 60.617188 L 37.777344 65.4375 C 36.523438 68.097656 35.421875 70.179688 35.320312 70.082031 C 35.21875 69.980469 34.191406 67.820312 33.039062 65.261719 L 30.929688 60.617188 L 29.25 60.542969 C 27.71875 60.46875 27.59375 60.515625 27.59375 60.992188 Z M 27.59375 60.992188 "/>
<path style=" stroke:none;fill-rule:nonzero;fill:rgb(0%,0%,0%);fill-opacity:1;" d="M 79.773438 60.992188 C 79.773438 61.394531 79.949219 61.496094 80.523438 61.496094 L 81.277344 61.496094 L 81.277344 73.292969 L 80.523438 73.292969 C 79.949219 73.292969 79.773438 73.394531 79.773438 73.796875 C 79.773438 74.273438 79.949219 74.296875 82.03125 74.296875 C 84.085938 74.296875 84.289062 74.246094 84.289062 73.820312 C 84.289062 73.445312 84.085938 73.292969 83.484375 73.242188 L 82.65625 73.167969 L 82.65625 61.621094 L 83.484375 61.546875 C 84.085938 61.496094 84.289062 61.34375 84.289062 60.96875 C 84.289062 60.542969 84.085938 60.492188 82.03125 60.492188 C 79.949219 60.492188 79.773438 60.515625 79.773438 60.992188 Z M 79.773438 60.992188 "/>
<path style=" stroke:none;fill-rule:nonzero;fill:rgb(0%,0%,0%);fill-opacity:1;" d="M 47.4375 63.78125 C 46.109375 64.03125 46.058594 64.082031 46.257812 64.882812 C 46.433594 65.585938 46.785156 65.6875 47.3125 65.136719 C 47.8125 64.660156 50.875 64.609375 51.527344 65.085938 C 51.800781 65.285156 52.027344 65.863281 52.101562 66.566406 L 52.230469 67.695312 L 50.019531 67.820312 C 47.488281 67.945312 46.359375 68.398438 45.78125 69.527344 C 45.027344 70.957031 45.53125 73.117188 46.808594 73.945312 C 47.839844 74.648438 50.671875 74.574219 51.652344 73.84375 C 52.578125 73.167969 52.578125 73.167969 52.753906 73.820312 C 52.878906 74.246094 53.054688 74.324219 53.859375 74.246094 C 54.535156 74.195312 54.835938 74.046875 54.886719 73.71875 C 54.964844 73.417969 54.8125 73.292969 54.359375 73.292969 C 53.558594 73.292969 53.433594 72.640625 53.433594 68.851562 C 53.433594 66.992188 53.308594 65.710938 53.082031 65.160156 C 52.480469 63.679688 50.421875 63.175781 47.4375 63.78125 Z M 52.179688 70.382812 C 52.179688 72.640625 51.75 73.117188 49.644531 73.242188 C 47.664062 73.367188 46.933594 72.917969 46.734375 71.410156 C 46.632812 70.632812 46.734375 70.257812 47.136719 69.730469 C 47.738281 68.976562 48.140625 68.851562 50.496094 68.800781 L 52.179688 68.773438 Z M 52.179688 70.382812 "/>
<path style=" stroke:none;fill-rule:nonzero;fill:rgb(0%,0%,0%);fill-opacity:1;" d="M 71.367188 63.980469 C 69.714844 64.734375 69.363281 65.636719 69.363281 69.078125 C 69.363281 71.960938 69.363281 72.011719 70.140625 72.96875 C 71.21875 74.296875 72.875 74.75 75.433594 74.371094 C 77.488281 74.070312 77.589844 74.019531 77.390625 73.492188 C 77.265625 73.167969 76.8125 73.140625 74.882812 73.242188 C 72.925781 73.34375 72.398438 73.292969 71.84375 72.941406 C 71.09375 72.441406 70.492188 71.132812 70.492188 70.03125 L 70.492188 69.277344 L 78.015625 69.277344 L 78.015625 67.671875 C 78.015625 65.8125 77.390625 64.632812 76.011719 63.957031 C 74.855469 63.351562 72.671875 63.378906 71.367188 63.980469 Z M 75.734375 65.1875 C 76.4375 65.710938 77.089844 67.269531 76.863281 67.898438 C 76.738281 68.199219 76.136719 68.273438 73.601562 68.273438 L 70.492188 68.273438 L 70.492188 67.644531 C 70.492188 66.492188 71.167969 65.261719 72.046875 64.882812 C 73.101562 64.40625 74.855469 64.558594 75.734375 65.1875 Z M 75.734375 65.1875 "/>
</g>
</svg>
